<?xml version="1.0" encoding="UTF-8"?>
<svg id="Layer_1" xmlns="http://www.w3.org/2000/svg" xmlns:xlink="http://www.w3.org/1999/xlink" version="1.1" viewBox="0 0 760 180">
  <!-- Generator: Adobe Illustrator 30.7.0, SVG Export Plug-In . SVG Version: 2.1.4 Build 114)  -->
  <defs>
    <style>
      .st0 { fill: #F37521; }

      .st1 {
        isolation: isolate;
      }

      .st2 {
        fill: #111111;
      }
    </style>
    
  </defs>
  <g class="st1">
    <path class="st2" d="M53.96,96.55c3.1-5.43,7.33-9.67,12.7-12.7,5.37-3.03,11.38-4.55,18.05-4.55,7.8,0,14.63,2,20.5,6,5.87,4,9.97,9.53,12.3,16.6h-16.1c-1.6-3.33-3.85-5.83-6.75-7.5-2.9-1.67-6.25-2.5-10.05-2.5-4.07,0-7.68.95-10.85,2.85-3.17,1.9-5.63,4.58-7.4,8.05-1.77,3.47-2.65,7.53-2.65,12.2s.88,8.65,2.65,12.15c1.77,3.5,4.23,6.2,7.4,8.1,3.17,1.9,6.78,2.85,10.85,2.85,3.8,0,7.15-.85,10.05-2.55s5.15-4.22,6.75-7.55h16.1c-2.33,7.13-6.42,12.68-12.25,16.65-5.83,3.97-12.68,5.95-20.55,5.95-6.67,0-12.68-1.52-18.05-4.55-5.37-3.03-9.6-7.25-12.7-12.65-3.1-5.4-4.65-11.53-4.65-18.4s1.55-13.02,4.65-18.45Z"/>
    <path class="st2" d="M129.26,107.2c2.23-4.33,5.27-7.67,9.1-10,3.83-2.33,8.12-3.5,12.85-3.5,4.13,0,7.75.83,10.85,2.5,3.1,1.67,5.58,3.77,7.45,6.3v-7.9h14.1v55.4h-14.1v-8.1c-1.8,2.6-4.28,4.75-7.45,6.45-3.17,1.7-6.82,2.55-10.95,2.55-4.67,0-8.92-1.2-12.75-3.6-3.83-2.4-6.87-5.78-9.1-10.15-2.23-4.37-3.35-9.38-3.35-15.05s1.12-10.57,3.35-14.9ZM167.51,113.55c-1.33-2.43-3.13-4.3-5.4-5.6-2.27-1.3-4.7-1.95-7.3-1.95s-5,.63-7.2,1.9c-2.2,1.27-3.98,3.12-5.35,5.55-1.37,2.43-2.05,5.32-2.05,8.65s.68,6.25,2.05,8.75c1.37,2.5,3.17,4.42,5.4,5.75,2.23,1.33,4.62,2,7.15,2s5.03-.65,7.3-1.95c2.27-1.3,4.07-3.17,5.4-5.6,1.33-2.43,2-5.35,2-8.75s-.67-6.32-2-8.75Z"/>
    <path class="st2" d="M218.36,96.3c2.9-1.67,6.22-2.5,9.95-2.5v14.7h-3.7c-4.4,0-7.72,1.03-9.95,3.1-2.23,2.07-3.35,5.67-3.35,10.8v27.6h-14v-55.4h14v8.6c1.8-2.93,4.15-5.23,7.05-6.9Z"/>
    <path class="st2" d="M288.81,126.5h-40.5c.33,4,1.73,7.13,4.2,9.4,2.47,2.27,5.5,3.4,9.1,3.4,5.2,0,8.9-2.23,11.1-6.7h15.1c-1.6,5.33-4.67,9.72-9.2,13.15-4.53,3.43-10.1,5.15-16.7,5.15-5.33,0-10.12-1.18-14.35-3.55-4.23-2.37-7.53-5.71-9.9-10.05-2.37-4.33-3.55-9.33-3.55-15s1.17-10.77,3.5-15.1c2.33-4.33,5.6-7.67,9.8-10,4.2-2.33,9.03-3.5,14.5-3.5s9.98,1.13,14.15,3.4c4.17,2.27,7.4,5.48,9.7,9.65,2.3,4.17,3.45,8.95,3.45,14.35,0,2-.13,3.8-.4,5.4ZM274.71,117.1c-.07-3.6-1.37-6.48-3.9-8.65-2.53-2.17-5.63-3.25-9.3-3.25-3.47,0-6.38,1.05-8.75,3.15-2.37,2.1-3.82,5.02-4.35,8.75h26.3Z"/>
    <path class="st2" d="M346.9,80.2v11.3h-18.6v58.5h-14v-58.5h-18.6v-11.3h51.2Z"/>
    <path class="st2" d="M378.15,96.3c2.9-1.67,6.22-2.5,9.95-2.5v14.7h-3.7c-4.4,0-7.72,1.03-9.95,3.1-2.23,2.07-3.35,5.67-3.35,10.8v27.6h-14v-55.4h14v8.6c1.8-2.93,4.15-5.23,7.05-6.9Z"/>
    <path class="st2" d="M407.7,147.35c-4.27-2.37-7.62-5.71-10.05-10.05-2.43-4.33-3.65-9.33-3.65-15s1.25-10.67,3.75-15c2.5-4.33,5.92-7.68,10.25-10.05,4.33-2.37,9.17-3.55,14.5-3.55s10.17,1.18,14.5,3.55c4.33,2.37,7.75,5.72,10.25,10.05,2.5,4.33,3.75,9.33,3.75,15s-1.29,10.67-3.85,15c-2.57,4.33-6.03,7.68-10.4,10.05-4.37,2.37-9.25,3.55-14.65,3.55s-10.13-1.18-14.4-3.55ZM429.25,136.85c2.23-1.23,4.02-3.08,5.35-5.55,1.33-2.47,2-5.47,2-9,0-5.27-1.38-9.32-4.15-12.15-2.77-2.83-6.15-4.25-10.15-4.25s-7.35,1.42-10.05,4.25c-2.7,2.83-4.05,6.88-4.05,12.15s1.32,9.32,3.95,12.15c2.63,2.83,5.95,4.25,9.95,4.25,2.53,0,4.92-.62,7.15-1.85Z"/>
    <path class="st2" d="M484.4,137.1l14-42.5h14.9l-20.5,55.4h-17l-20.4-55.4h15l14,42.5Z"/>
    <path class="st2" d="M572.3,126.5h-40.5c.33,4,1.73,7.13,4.2,9.4,2.47,2.27,5.5,3.4,9.1,3.4,5.2,0,8.9-2.23,11.1-6.7h15.1c-1.6,5.33-4.67,9.72-9.2,13.15-4.53,3.43-10.1,5.15-16.7,5.15-5.33,0-10.12-1.18-14.35-3.55-4.23-2.37-7.53-5.71-9.9-10.05-2.37-4.33-3.55-9.33-3.55-15s1.17-10.77,3.5-15.1c2.33-4.33,5.6-7.67,9.8-10,4.2-2.33,9.03-3.5,14.5-3.5s9.98,1.13,14.15,3.4c4.17,2.27,7.4,5.48,9.7,9.65,2.3,4.17,3.45,8.95,3.45,14.35,0,2-.13,3.8-.4,5.4ZM558.2,117.1c-.07-3.6-1.37-6.48-3.9-8.65-2.53-2.17-5.63-3.25-9.3-3.25-3.47,0-6.38,1.05-8.75,3.15-2.37,2.1-3.82,5.02-4.35,8.75h26.3Z"/>
  </g>
  <path class="st0" d="M617.27,61.19c-18.32,0-32.1,14.85-32.1,33.17,0,21.38,12.76,33.93,21.88,48.61,6.83,11.01,7.72,19.84,10.23,19.84s3.41-8.83,10.24-19.84c9.11-14.69,21.88-27.23,21.88-48.61,0-18.32-13.79-33.17-32.11-33.17h0ZM636.09,115.02c-4.35,4.17-8.97,7.96-12.87,12.54-3.75,4.26-6.83,9.13-8.29,14.57-.42,1.56-.66,3.22-.66,4.92.06.38-.46.61-.68.27-2.1-3.27-2.02-7.47-1.03-11.09,2.65-8.95,10.33-15.4,18.24-19.65,1.6-.78,3.22-1.52,4.87-2.17.36-.15.69.34.4.61h0ZM641.67,101.49c-3.12,6.57-10.21,7.73-20.64,12.27-9.1,3.96-13.29,11.28-15.11,15.87-.29.75-1.32.85-1.75.16-6.3-9.93-11.65-19.9-11.65-33.53,0-15.54,10.87-27.71,24.75-27.71s24.75,12.17,24.75,27.71c0,1.68-.09,3.3-.25,4.87,0,.12-.04.24-.09.35h0ZM617.27,79.06c-6.7,0-12.14,5.44-12.14,12.14s5.44,12.14,12.14,12.14,12.14-5.44,12.14-12.14-5.44-12.14-12.14-12.14ZM617.27,97.59c-3.52,0-6.39-2.87-6.39-6.39s2.87-6.39,6.39-6.39,6.39,2.87,6.39,6.39-2.87,6.39-6.39,6.39Z"/>
</svg>